<svg xmlns="http://www.w3.org/2000/svg" xmlns:xlink="http://www.w3.org/1999/xlink" viewBox="0 0 645 430.67">
  <defs>
    <style>
      .bf699659-c8d2-4d73-a453-3e66610868b1 {
        fill: #876e46;
      }

      .ed5af719-84da-4b3f-a9d2-eecb835d8379 {
        fill: #add34f;
      }

      .f0f853c3-2abe-4bd4-ba62-a293c62d66a7 {
        fill: #b8dd43;
      }

      .fe16555d-88b1-4e7b-aa0c-4c43686277c2 {
        fill: #97c13d;
      }

      .a3afee2b-3db8-4d26-806e-0228562bc3ac {
        fill: #6e150c;
      }

      .a675dffe-9ef2-4724-b09b-96f16dca4f73 {
        fill: #00441f;
      }

      .a315b72c-8fa8-4477-9787-9fa17e2af50e {
        fill: #881812;
      }

      .ab28b332-01eb-4f26-af55-9ac538ef3d5d {
        fill: #ca1517;
      }

      .bf71b14f-6854-45f9-9b59-c8e594b29570 {
        fill: #ccc;
      }

      .e56b07de-1b0e-4f01-bb3c-a70de284664e {
        fill: #af1917;
      }

      .ed4bee1a-1882-4c23-99b9-1dd5b5caf240 {
        fill: #adadad;
      }

      .b4c6d999-574c-4f16-8845-2e43b925b850 {
        fill: #294697;
      }

      .bba34039-efab-4131-bf41-2d7f0094d71b {
        fill: #264294;
      }

      .e061720e-4bb9-4332-8cdb-bf3dbf33aa42 {
        fill: #971c14;
      }

      .b79e6b0b-1cf4-47af-b32a-31474d78b94c {
        fill: #66140c;
      }

      .bcb7949c-136e-41d5-b736-7200a833c532 {
        fill: #fff;
      }

      .ad54fd21-1dee-4200-8f6b-81abeb0f72e7 {
        fill: #961914;
      }

      .bae874c3-8c47-4e02-b285-cfac4aaccb52 {
        fill: #036831;
      }

      .e4c8a379-d147-4e16-8f33-8aa663af38d4 {
        fill: #811810;
      }

      .b099d71b-c4a7-418d-a494-3d4ccb460676 {
        fill: #d7bb01;
      }

      .bf1c5016-23c6-4d74-bc8d-af6711917c11 {
        fill: #e4cc00;
      }

      .a3cc3d7b-0f56-4115-a2f6-72a0919bd227 {
        fill: #d1ad04;
      }

      .b98e2083-a6bc-4926-9367-0788d25b8958 {
        fill: #d8b300;
      }

      .ee2cb090-cdc1-4b8c-a81d-8f96b0073592 {
        fill: #f2f2f2;
      }

      .b56c8464-4440-4479-941c-bda63087ad45 {
        fill: #d6cf04;
      }

      .a0d48085-96ca-4cb1-8db0-91afb953b205 {
        fill: #e4c304;
      }

      .b615bb02-dce5-4d25-8a3b-fbb360fdc9bd {
        fill: #ebcd00;
      }

      .f2cd65a9-29a9-4c46-b898-f3b5d32ad1ed {
        fill: #d1b600;
      }

      .bef52f51-a6a5-4a62-8bb3-56cac431ef47 {
        fill: #ead100;
      }

      .aa8419e5-5308-4f95-b2bc-fa2c2bf7b2a4 {
        fill: #e2e2e2;
      }

      .e675631a-8208-4e06-a352-b39eae7007a9 {
        fill: #fcfcfc;
      }

      .fb706f16-8210-4d11-95e2-4e7b2b41f35e {
        fill: #c4ab03;
      }

      .fe8aa4f7-aeec-4afc-8488-703da245be4e {
        fill: #b79b0c;
      }

      .a8b6105c-84ae-4735-8d21-29940bc81686 {
        fill: #b1930f;
      }

      .b78f5ec9-a5c4-4092-9f09-8a787e6382b9 {
        fill: #b09610;
      }

      .b29338d7-a268-496e-9dd1-165fdbc41b27 {
        fill: #bdae08;
      }

      .a9a069d5-f294-40a1-a5cd-6c34a7adaabb {
        fill: #b8a00c;
      }

      .b09727d0-6281-42ed-a662-91b690e4b247 {
        fill: #aa9914;
      }

      .bba6d4cf-db82-4a62-a58e-a0cd44645cf1 {
        fill: #b0a112;
      }

      .b18b7cae-0dac-4d19-8a81-fbe4aea3d56a {
        fill: #d0bf03;
      }

      .bf28e697-5c38-4de2-a0f2-169cdd81cee9 {
        fill: #cab904;
      }

      .a2ac2697-8f71-45f8-9d3a-24707a239a4a {
        fill: #c49e04;
      }

      .be3951b4-85f4-4f36-8b93-16418aaf1b75 {
        fill: #a99013;
      }

      .ad22711c-4be9-46ca-bb3a-26527e463021 {
        fill: #e3d000;
      }

      .a6da48bd-4983-4188-bffc-d7e478cc88cf {
        fill: #d1bb00;
      }

      .ace061a9-2c4d-4ea8-b723-163c60bb4716 {
        fill: #afad15;
      }

      .a2e2f4de-2dae-4f17-8f5c-7a4f8eaf0b3b {
        fill: #c51718;
      }

      .bd60652b-5660-4671-9c6d-f57e230a494e {
        fill: #2b2e71;
      }

      .b5f30bff-1d32-438d-87d2-a3d83c96f6a8 {
        fill: #2a2e70;
      }

      .b5c16615-09c1-4511-b2ef-299099ae817f {
        fill: #252c5e;
      }

      .fd1f4220-b6d8-41c4-9a9c-3eff79d90d98 {
        fill: #898989;
      }

      .fb25e8d2-8713-4bdb-90a1-d977a618f75a {
        fill: #ffca6c;
      }

      .ab2a57d9-b1a8-4093-b98d-40427990ec9c {
        fill: #e8bd84;
      }

      .ea04fc93-e673-43f2-8d81-743deeafb985 {
        fill: #7b9b2c;
      }

      .a3796719-fab0-4ef8-a926-7f05d88bd40a {
        fill: #ad5134;
      }

      .be11c451-25f0-4325-8025-d9c64aae8a50 {
        fill: #d35937;
      }

      .e0acfae7-523c-4b39-8ae1-363a932e9c09 {
        fill: #1f0c0d;
      }

      .b05a3ba5-9e75-4991-8988-36f61d2aad19 {
        fill: #e02c26;
      }

      .be8f7d8e-8c5b-4b11-b25d-630e702ed427 {
        fill: #fa9652;
      }

      .f58b4235-4b44-4abf-b772-c8898ead6074 {
        fill: #fade99;
      }

      .f0a6ede4-f888-470d-9f68-bbfba59a0a6a {
        fill: #1fa3ab;
      }

      .ac2064bf-ebe2-45b5-8cf8-d5fe034081c9 {
        fill: #5e2128;
      }

      .bf311c44-7ec6-4c25-90bc-dd07d2a2d1c1 {
        fill: none;
      }
    </style>
  </defs>
  <title>tienda</title>
  <g id="e67160b2-57ef-49a4-8fac-acc3faa57d00" data-name="Capa 1">
    <path class="bf699659-c8d2-4d73-a453-3e66610868b1" d="M597.21,406.1H585.3l2.1-155.43,6.31.7Z" transform="translate(-18.13 -42.43)"/>
    <path class="ed5af719-84da-4b3f-a9d2-eecb835d8379" d="M636,254.06c-8.28,18.34-23.64,20.83-46.1,21.7-9.17.36-29.4,1.73-38.83-3.4-11.9-6.48-20.7-22.18-15.66-34.75,1-2.63,1.61-2.17,1.18-3.19a5.2,5.2,0,0,0-1.83-1.81c-8.27-6.07-8.53-20.15-.57-26.57,1.74-1.41,4.25-3.44,4.46-4.84.12-.76-2.47-4.21-3.55-6.65-4-9.1-1.68-17.1,2.63-21.54,6-6.12,11.75-4.54,12.15-5.9.64-2.17-10.39-9.59-1.63-24,6.31-10.38,17.19-7.74,17.87-8.69,1.18-1.58-1.4-6.6-1.75-10.74-1.18-14.17,5.64-19.45,13.32-22.58s19.58,4.07,18.06,12.21a21.06,21.06,0,0,1,28.12,26.79c10.22,3,15,10.18,16.13,17.85,1.75,11.74-1.94,18-10.64,24.55,8.57,3.29,14.54,9.71,15.58,18.51s-2.28,20.84-13.9,23.8C635.28,230.29,640.91,243.2,636,254.06Z" transform="translate(-18.13 -42.43)"/>
    <path class="f0f853c3-2abe-4bd4-ba62-a293c62d66a7" d="M583.19,108.9c-21.59.51-12.55,29.09-1.84,37.43.77-2.93,1.54-5.9,2.37-8.77-19.9,3-32.72,19.1-18.68,37.25l3.71-9c-10.9,1.27-21.16,5.72-23.58,17.44-2.36,11.25,7.35,19.22,17.05,21.8,6.55,1.75,9.34-8.38,2.8-10.12-14.88-4-9.46-17.07,3.73-18.63,4.8-.56,6.64-5.18,3.72-9-13.2-17.06,7.3-18.69,14-19.7,3.73-.56,5.29-6.46,2.37-8.77-1.61-1.26-15.63-19.27-5.59-19.51,6.77-.16,6.78-10.62,0-10.5Z" transform="translate(-18.13 -42.43)"/>
    <path class="fe16555d-88b1-4e7b-aa0c-4c43686277c2" d="M580.39,264.84c11.82,3.92,29.91,4.13,39.74-4.89,10.27-9.44,6.61-22.81,2.25-34.23-2.37-6.26-12.56-3.55-10.14,2.79,2.77,7.28,7.92,18.49,0,24.31-7.66,5.66-20.68,4.73-29.07,1.9-6.45-2.14-9.19,8-2.8,10.13Z" transform="translate(-18.13 -42.43)"/>
    <path class="fe16555d-88b1-4e7b-aa0c-4c43686277c2" d="M298,187.57c-7.5,16.53-21.39,18.89-41.67,19.63-8.28.32-26.6,1.56-35.12-3.08-10.77-5.9-18.72-20.07-14.18-31.42.95-2.37,1.45-1.95,1-2.89a4.68,4.68,0,0,0-1.66-1.62c-7.45-5.49-7.72-18.23-.51-24,1.57-1.28,3.83-3.11,4-4.38.11-.69-2.23-3.8-3.21-6-3.64-8.27-1.51-15.47,2.36-19.47,5.39-5.54,10.64-4.12,11-5.37.57-2-9.39-8.68-1.47-21.7,5.71-9.39,15.55-7,16.15-7.85,1-1.43-1.25-6-1.58-9.72-1.09-12.82,5.12-17.59,12-20.39s17.73,3.67,16.35,11A19,19,0,0,1,287,84.53c9.27,2.71,13.62,9.23,14.66,16.17,1.58,10.63-1.74,16.31-9.64,22.2,7.74,3,13.15,8.78,14.08,16.74s-2.06,18.89-12.56,21.52C297.34,166.14,302.47,177.76,298,187.57Z" transform="translate(-18.13 -42.43)"/>
    <path class="f0f853c3-2abe-4bd4-ba62-a293c62d66a7" d="M250.28,56.35c-19.52.46-11.35,26.3-1.68,33.84q1.07-4,2.11-7.93c-18,2.68-29.55,17.27-16.89,33.68l3.37-8.11c-9.87,1.14-19.14,5.19-21.34,15.81-2.1,10.17,6.64,17.38,15.37,19.72,5.91,1.58,8.45-7.58,2.53-9.16-13.47-3.55-8.57-15.43,3.39-16.84,4.32-.52,6-4.72,3.36-8.11-11.94-15.43,6.59-16.9,12.69-17.8,3.36-.51,4.73-5.91,2.09-8-1.44-1.18-14.12-17.43-5.05-17.64,6.13-.14,6.14-9.64,0-9.44Z" transform="translate(-18.13 -42.43)"/>
    <path class="f0f853c3-2abe-4bd4-ba62-a293c62d66a7" d="M247.75,197.32c10.64,3.54,27,3.75,35.93-4.41,9.29-8.53,6-20.63,2-31-2.16-5.67-11.35-3.21-9.16,2.53,2.5,6.57,7.16,16.71,0,22-6.94,5.11-18.7,4.25-26.29,1.71-5.84-1.93-8.28,7.24-2.53,9.16Z" transform="translate(-18.13 -42.43)"/>
    <path class="fe16555d-88b1-4e7b-aa0c-4c43686277c2" d="M120.45,390c-7.5,13.08-21.39,14.85-41.67,15.48-8.28.24-26.6,1.18-35.12-2.44-10.77-4.61-18.72-15.8-14.18-24.79,1-1.88,1.45-1.55,1-2.28a4.53,4.53,0,0,0-1.66-1.28,11,11,0,0,1-4.13-3.9,10.92,10.92,0,0,1,3.62-15.05c1.58-1,3.83-2.45,4-3.45.1-.53-2.23-3-3.21-4.72-3.64-6.5-1.53-12.2,2.36-15.35,5.39-4.37,10.64-3.25,11-4.24.56-1.55-9.46-6.83-1.48-17.11,5.71-7.39,15.55-5.51,16.16-6.18,1-1.18-1.26-4.73-1.59-7.66-1.11-10.11,5.1-13.87,12-16.1s17.73,2.9,16.33,8.7c6.83-2.36,15.37-1.18,20.78,2.9s7.3,10.72,4.64,16.21c9.27,2.13,13.62,7.27,14.66,12.75,1.59,8.36-1.75,12.84-9.64,17.49,7.74,2.37,13.14,6.92,14.07,13.2s-2,14.86-12.54,17C119.75,373.06,124.89,382.26,120.45,390Z" transform="translate(-18.13 -42.43)"/>
    <path class="f0f853c3-2abe-4bd4-ba62-a293c62d66a7" d="M72.67,286.57c-19.53.36-11.35,20.73-1.68,26.68.7-2.08,1.41-4.17,2.1-6.26-18,2.12-29.55,13.62-16.89,26.56q1.69-3.19,3.36-6.4c-9.86.93-19.14,4.09-21.28,12.45-2.1,8,6.65,13.7,15.37,15.55,5.91,1.24,8.45-6,2.53-7.23-13.46-2.82-8.57-12.17,3.38-13.28,4.34-.4,6-3.7,3.37-6.39C51,316.08,69.55,314.9,75.66,314.17c3.35-.4,4.73-4.61,2.09-6.26-1.45-.89-14.18-13.74-5-13.91,6.13-.12,6.14-7.6,0-7.48Z" transform="translate(-18.13 -42.43)"/>
    <path class="f0f853c3-2abe-4bd4-ba62-a293c62d66a7" d="M70.17,397.68c10.64,2.8,27,3,35.94-3.48,9.29-6.72,5.91-16.26,2-24.41-2.15-4.47-11.35-2.53-9.16,2,2.5,5.18,7.16,13.18,0,17.33-6.92,4-18.68,3.36-26.3,1.35-5.83-1.54-8.28,5.7-2.52,7.21Z" transform="translate(-18.13 -42.43)"/>
    <path class="a3afee2b-3db8-4d26-806e-0228562bc3ac" d="M585.39,80.1H516.13V49.75c0-4-4.27-7.32-8.27-7.32H427.49c-4,0-8.17,3.28-8.17,7.32V80.1H353.83c-4.05,0-9.29,3.28-9.29,7.33v80.84a7.34,7.34,0,0,0,7.33,7.32H587.34a7.34,7.34,0,0,0,7.34-7.32V87.43C594.68,83.38,589.45,80.1,585.39,80.1Z" transform="translate(-18.13 -42.43)"/>
    <path class="a675dffe-9ef2-4724-b09b-96f16dca4f73" d="M69.07,261.64H52.5v3.6H69.07Z" transform="translate(-18.13 -42.43)"/>
    <path class="a315b72c-8fa8-4477-9787-9fa17e2af50e" d="M52.61,244.51H23.05a4.91,4.91,0,0,0-4.92,4.91V277a4.92,4.92,0,0,0,4.92,4.92H52.61A4.92,4.92,0,0,0,57.53,277V249.42A4.91,4.91,0,0,0,52.61,244.51Z" transform="translate(-18.13 -42.43)"/>
    <path class="ab28b332-01eb-4f26-af55-9ac538ef3d5d" d="M50.33,247.1H25.39a4.29,4.29,0,0,0-4.3,4.29v23.22a4.29,4.29,0,0,0,4.3,4.29H50.33a4.3,4.3,0,0,0,4.3-4.29V251.39A4.3,4.3,0,0,0,50.33,247.1Z" transform="translate(-18.13 -42.43)"/>
    <path class="bf71b14f-6854-45f9-9b59-c8e594b29570" d="M624,222.4H148.72a14.65,14.65,0,0,0-14.66,14.65v221.4a14.65,14.65,0,0,0,14.66,14.65H624a14.66,14.66,0,0,0,14.67-14.65V237.05A14.66,14.66,0,0,0,624,222.4Z" transform="translate(-18.13 -42.43)"/>
    <path class="e56b07de-1b0e-4f01-bb3c-a70de284664e" d="M584.46,180.23H59.83a4.36,4.36,0,0,1-2-.51,4.2,4.2,0,0,1-1.54-1.39,4.25,4.25,0,0,1-.7-2,4.16,4.16,0,0,1,.29-2.06L66,149.67a4.37,4.37,0,0,1,1.58-1.93A4.29,4.29,0,0,1,70,147H572.89a4.36,4.36,0,0,1,2.3.66,4.41,4.41,0,0,1,1.58,1.79l11.61,24.65a4.27,4.27,0,0,1,.41,2.11,4.33,4.33,0,0,1-.67,2,4.29,4.29,0,0,1-3.66,2Z" transform="translate(-18.13 -42.43)"/>
    <path class="ed4bee1a-1882-4c23-99b9-1dd5b5caf240" d="M417,264.5h-22.9a1.63,1.63,0,0,0-1.63,1.63v9.28a1.63,1.63,0,0,0,1.63,1.63H417a1.63,1.63,0,0,0,1.63-1.63v-9.28A1.63,1.63,0,0,0,417,264.5Z" transform="translate(-18.13 -42.43)"/>
    <path class="ed4bee1a-1882-4c23-99b9-1dd5b5caf240" d="M196.9,355.08H174a1.63,1.63,0,0,0-1.63,1.62V366a1.63,1.63,0,0,0,1.63,1.63H196.9a1.63,1.63,0,0,0,1.64-1.63V356.7A1.63,1.63,0,0,0,196.9,355.08Z" transform="translate(-18.13 -42.43)"/>
    <path class="ed4bee1a-1882-4c23-99b9-1dd5b5caf240" d="M225.74,355.08H202.85a1.63,1.63,0,0,0-1.63,1.62V366a1.63,1.63,0,0,0,1.63,1.63h22.89a1.63,1.63,0,0,0,1.64-1.63V356.7A1.63,1.63,0,0,0,225.74,355.08Z" transform="translate(-18.13 -42.43)"/>
    <path class="ed4bee1a-1882-4c23-99b9-1dd5b5caf240" d="M143.79,355.08h-22.9a1.63,1.63,0,0,0-1.63,1.62V366a1.63,1.63,0,0,0,1.63,1.63h22.9a1.63,1.63,0,0,0,1.63-1.63V356.7A1.63,1.63,0,0,0,143.79,355.08Z" transform="translate(-18.13 -42.43)"/>
    <path class="ed4bee1a-1882-4c23-99b9-1dd5b5caf240" d="M115.5,355.08H92.61A1.63,1.63,0,0,0,91,356.7V366a1.63,1.63,0,0,0,1.63,1.63H115.5a1.63,1.63,0,0,0,1.63-1.63V356.7A1.63,1.63,0,0,0,115.5,355.08Z" transform="translate(-18.13 -42.43)"/>
    <path class="ed4bee1a-1882-4c23-99b9-1dd5b5caf240" d="M254.6,355.08H231.7a1.63,1.63,0,0,0-1.63,1.62V366a1.63,1.63,0,0,0,1.63,1.63h22.9a1.63,1.63,0,0,0,1.63-1.63V356.7A1.63,1.63,0,0,0,254.6,355.08Z" transform="translate(-18.13 -42.43)"/>
    <path class="ed4bee1a-1882-4c23-99b9-1dd5b5caf240" d="M376.17,355.08H353.28a1.63,1.63,0,0,0-1.63,1.62V366a1.63,1.63,0,0,0,1.63,1.63h22.89A1.63,1.63,0,0,0,377.8,366V356.7A1.63,1.63,0,0,0,376.17,355.08Z" transform="translate(-18.13 -42.43)"/>
    <path class="ed4bee1a-1882-4c23-99b9-1dd5b5caf240" d="M556.06,345.65h-22.9a1.63,1.63,0,0,0-1.63,1.63v9.28a1.63,1.63,0,0,0,1.63,1.63h22.9a1.63,1.63,0,0,0,1.63-1.63v-9.28A1.63,1.63,0,0,0,556.06,345.65Z" transform="translate(-18.13 -42.43)"/>
    <path class="ed4bee1a-1882-4c23-99b9-1dd5b5caf240" d="M556.1,286.38H533.21a1.63,1.63,0,0,0-1.63,1.63v9.28a1.63,1.63,0,0,0,1.63,1.62H556.1a1.63,1.63,0,0,0,1.64-1.62V288A1.63,1.63,0,0,0,556.1,286.38Z" transform="translate(-18.13 -42.43)"/>
    <path class="ed4bee1a-1882-4c23-99b9-1dd5b5caf240" d="M563.93,301.68H541a1.63,1.63,0,0,0-1.63,1.63v9.28a1.62,1.62,0,0,0,1.63,1.62h22.9a1.62,1.62,0,0,0,1.63-1.62v-9.28A1.63,1.63,0,0,0,563.93,301.68Z" transform="translate(-18.13 -42.43)"/>
    <path class="ed4bee1a-1882-4c23-99b9-1dd5b5caf240" d="M571.21,393.73a3.26,3.26,0,0,0,3.26-3.26V176.9a3.24,3.24,0,0,0-3.26-3.26,3.17,3.17,0,0,0-1.25.25,3.1,3.1,0,0,0-1.05.71,3.42,3.42,0,0,0-.71,1.05,3.35,3.35,0,0,0-.24,1.25V390.46a3.35,3.35,0,0,0,.24,1.25,3.26,3.26,0,0,0,.7,1.06,3.46,3.46,0,0,0,1.06.71A3.36,3.36,0,0,0,571.21,393.73Z" transform="translate(-18.13 -42.43)"/>
    <path class="ed4bee1a-1882-4c23-99b9-1dd5b5caf240" d="M330,212.71H88.46a6.83,6.83,0,0,0-6.84,6.83v126a6.83,6.83,0,0,0,6.84,6.83H330a6.84,6.84,0,0,0,6.85-6.83v-126A6.84,6.84,0,0,0,330,212.71Z" transform="translate(-18.13 -42.43)"/>
    <path class="b4c6d999-574c-4f16-8845-2e43b925b850" d="M324.14,218.24H94a6.84,6.84,0,0,0-6.84,6.84V340.34A6.84,6.84,0,0,0,94,347.18H324.14a6.85,6.85,0,0,0,6.85-6.84V225.08A6.85,6.85,0,0,0,324.14,218.24Z" transform="translate(-18.13 -42.43)"/>
    <path class="a3afee2b-3db8-4d26-806e-0228562bc3ac" d="M565,152.22H69.89a2.47,2.47,0,0,1-1-.19,2.67,2.67,0,0,1-.85-.56,2.66,2.66,0,0,1-.76-1.84A2.59,2.59,0,0,1,69.89,147H565a2.6,2.6,0,0,1,2.41,3.6,2.45,2.45,0,0,1-.57.85,2.63,2.63,0,0,1-.84.56A2.47,2.47,0,0,1,565,152.22Z" transform="translate(-18.13 -42.43)"/>
    <path class="ed4bee1a-1882-4c23-99b9-1dd5b5caf240" d="M528.26,406.1H406V240.3a6.85,6.85,0,0,1,6.85-6.84H521.38a6.83,6.83,0,0,1,6.84,6.84Z" transform="translate(-18.13 -42.43)"/>
    <path class="bba34039-efab-4131-bf41-2d7f0094d71b" d="M464.08,406.1H412.83V240.3a6.83,6.83,0,0,1,6.84-6.84h37.56a6.85,6.85,0,0,1,6.85,6.84Z" transform="translate(-18.13 -42.43)"/>
    <path class="bba34039-efab-4131-bf41-2d7f0094d71b" d="M521.45,406.1H470.19V240.3a6.85,6.85,0,0,1,6.85-6.84h37.57a6.83,6.83,0,0,1,6.84,6.84Z" transform="translate(-18.13 -42.43)"/>
    <path class="a675dffe-9ef2-4724-b09b-96f16dca4f73" d="M499.33,53.6H436a7.34,7.34,0,0,0-7.34,7.33v56.43a7.34,7.34,0,0,0,7.34,7.33h63.35a7.33,7.33,0,0,0,7.34-7.33V60.93A7.33,7.33,0,0,0,499.33,53.6Z" transform="translate(-18.13 -42.43)"/>
    <path class="e061720e-4bb9-4332-8cdb-bf3dbf33aa42" d="M587.34,84.74H351.88a7.34,7.34,0,0,0-7.34,7.33V172.9a7.34,7.34,0,0,0,7.34,7.33H587.34a7.33,7.33,0,0,0,7.34-7.33V92.07A7.33,7.33,0,0,0,587.34,84.74Z" transform="translate(-18.13 -42.43)"/>
    <path class="b79e6b0b-1cf4-47af-b32a-31474d78b94c" d="M532.41,47H403.91a11.45,11.45,0,0,0-11.45,11.44V167.75a11.45,11.45,0,0,0,11.45,11.44h128.5a11.45,11.45,0,0,0,11.45-11.44V58.42A11.45,11.45,0,0,0,532.41,47Z" transform="translate(-18.13 -42.43)"/>
    <path class="bcb7949c-136e-41d5-b736-7200a833c532" d="M579,110.8H358a2.44,2.44,0,0,0,0,4.88H579a2.42,2.42,0,0,0,1.73-.71,2.44,2.44,0,0,0,0-3.46A2.42,2.42,0,0,0,579,110.8Z" transform="translate(-18.13 -42.43)"/>
    <path class="bcb7949c-136e-41d5-b736-7200a833c532" d="M525.24,51H412.38a13,13,0,0,0-13.06,13V164.61a13,13,0,0,0,13.06,13H525.24a13,13,0,0,0,13.06-13V64.07A13,13,0,0,0,525.24,51Z" transform="translate(-18.13 -42.43)"/>
    <path class="ad54fd21-1dee-4200-8f6b-81abeb0f72e7" d="M406.2,406.1H70.06a4.39,4.39,0,0,1-4.41-4.39V377.29a4.35,4.35,0,0,1,1.29-3.11,4.31,4.31,0,0,1,1.43-.95,4.25,4.25,0,0,1,1.69-.34H406.2Z" transform="translate(-18.13 -42.43)"/>
    <path class="b79e6b0b-1cf4-47af-b32a-31474d78b94c" d="M574.87,406.1H528.19V372.89h46.68a4.25,4.25,0,0,1,1.69.34,4.31,4.31,0,0,1,1.43.95,4.35,4.35,0,0,1,1.29,3.11v24.42a4.39,4.39,0,0,1-4.41,4.39Z" transform="translate(-18.13 -42.43)"/>
    <path class="bae874c3-8c47-4e02-b285-cfac4aaccb52" d="M70.06,269.09h-1.9a1.9,1.9,0,0,1-1.33-.55,1.94,1.94,0,0,1-.56-1.33v-7.54a1.94,1.94,0,0,1,.56-1.33,1.9,1.9,0,0,1,1.33-.55h1.9Z" transform="translate(-18.13 -42.43)"/>
    <path class="bf71b14f-6854-45f9-9b59-c8e594b29570" d="M491.91,297.8H479.52a2.94,2.94,0,0,0-2.93,2.93V332a2.93,2.93,0,0,0,2.93,2.93h12.39a2.93,2.93,0,0,0,2.93-2.93V300.73A2.93,2.93,0,0,0,491.91,297.8Z" transform="translate(-18.13 -42.43)"/>
    <path class="ad54fd21-1dee-4200-8f6b-81abeb0f72e7" d="M485.72,329.15a2.77,2.77,0,0,1-2.78-2.77V306.3a2.77,2.77,0,0,1,5.54,0v20.08a2.78,2.78,0,0,1-2.76,2.77Z" transform="translate(-18.13 -42.43)"/>
    <path class="bf71b14f-6854-45f9-9b59-c8e594b29570" d="M454.75,297.8H442.36a2.93,2.93,0,0,0-2.93,2.93V332a2.93,2.93,0,0,0,2.93,2.93h12.39a2.93,2.93,0,0,0,2.93-2.93V300.73A2.93,2.93,0,0,0,454.75,297.8Z" transform="translate(-18.13 -42.43)"/>
    <path class="e4c8a379-d147-4e16-8f33-8aa663af38d4" d="M448.53,329.15a2.78,2.78,0,0,1-1.06-.21,2.76,2.76,0,0,1-1.5-1.5,3,3,0,0,1-.2-1.06V306.3a2.77,2.77,0,0,1,5.53,0v20.08a2.78,2.78,0,0,1-2.77,2.77Z" transform="translate(-18.13 -42.43)"/>
    <path class="ed4bee1a-1882-4c23-99b9-1dd5b5caf240" d="M364,312.82h-22.9a1.63,1.63,0,0,0-1.63,1.63v9.28a1.63,1.63,0,0,0,1.63,1.63H364a1.63,1.63,0,0,0,1.63-1.63v-9.28A1.63,1.63,0,0,0,364,312.82Z" transform="translate(-18.13 -42.43)"/>
    <path class="ed4bee1a-1882-4c23-99b9-1dd5b5caf240" d="M392.67,312.82H369.78a1.63,1.63,0,0,0-1.63,1.63v9.28a1.63,1.63,0,0,0,1.63,1.63h22.89a1.63,1.63,0,0,0,1.63-1.63v-9.28A1.63,1.63,0,0,0,392.67,312.82Z" transform="translate(-18.13 -42.43)"/>
    <path class="ed4bee1a-1882-4c23-99b9-1dd5b5caf240" d="M392.35,340.16H369.46a1.63,1.63,0,0,0-1.63,1.63v9.28a1.63,1.63,0,0,0,1.63,1.63h22.89a1.63,1.63,0,0,0,1.64-1.63v-9.28A1.63,1.63,0,0,0,392.35,340.16Z" transform="translate(-18.13 -42.43)"/>
    <path class="ed4bee1a-1882-4c23-99b9-1dd5b5caf240" d="M379.09,298H356.2a1.63,1.63,0,0,0-1.63,1.63v9.27a1.63,1.63,0,0,0,1.63,1.63h22.89a1.63,1.63,0,0,0,1.63-1.63v-9.27A1.63,1.63,0,0,0,379.09,298Z" transform="translate(-18.13 -42.43)"/>
    <path class="ed4bee1a-1882-4c23-99b9-1dd5b5caf240" d="M401.83,249.84H378.94a1.63,1.63,0,0,0-1.63,1.63v9.28a1.62,1.62,0,0,0,1.63,1.62h22.89a1.62,1.62,0,0,0,1.63-1.62v-9.28A1.63,1.63,0,0,0,401.83,249.84Z" transform="translate(-18.13 -42.43)"/>
    <path class="ed4bee1a-1882-4c23-99b9-1dd5b5caf240" d="M387.65,264.5H364.76a1.63,1.63,0,0,0-1.64,1.63v9.28a1.63,1.63,0,0,0,1.64,1.63h22.89a1.63,1.63,0,0,0,1.63-1.63v-9.28A1.63,1.63,0,0,0,387.65,264.5Z" transform="translate(-18.13 -42.43)"/>
    <path class="ed4bee1a-1882-4c23-99b9-1dd5b5caf240" d="M373.23,249.84H350.34a1.63,1.63,0,0,0-1.64,1.63v9.28a1.62,1.62,0,0,0,1.64,1.62h22.89a1.62,1.62,0,0,0,1.63-1.62v-9.28A1.63,1.63,0,0,0,373.23,249.84Z" transform="translate(-18.13 -42.43)"/>
    <path class="b099d71b-c4a7-418d-a494-3d4ccb460676" d="M70,226.22H88.62v9.12a7.32,7.32,0,0,1-7.34,7.32h-4A7.34,7.34,0,0,1,70,235.34Z" transform="translate(-18.13 -42.43)"/>
    <path class="bf1c5016-23c6-4d74-bc8d-af6711917c11" d="M107.32,226.22h19.56v9.12a7.32,7.32,0,0,1-7.34,7.32h-4.89a7.34,7.34,0,0,1-7.33-7.32Z" transform="translate(-18.13 -42.43)"/>
    <path class="a3cc3d7b-0f56-4115-a2f6-72a0919bd227" d="M145,226.22h19.56v9.12a7.34,7.34,0,0,1-7.33,7.32h-4.89a7.32,7.32,0,0,1-7.34-7.32Z" transform="translate(-18.13 -42.43)"/>
    <path class="b98e2083-a6bc-4926-9367-0788d25b8958" d="M182.59,226.22h17.73v9.12a7.32,7.32,0,0,1-7.34,7.32h-3a7.34,7.34,0,0,1-7.33-7.32Z" transform="translate(-18.13 -42.43)"/>
    <path class="ee2cb090-cdc1-4b8c-a81d-8f96b0073592" d="M88.68,226.22h18.58v9.12a7.32,7.32,0,0,1-7.34,7.32H96a7.34,7.34,0,0,1-7.33-7.32Z" transform="translate(-18.13 -42.43)"/>
    <path class="ee2cb090-cdc1-4b8c-a81d-8f96b0073592" d="M126.81,226.22H145v9.12a7.34,7.34,0,0,1-7.33,7.32h-3.55a7.34,7.34,0,0,1-7.34-7.32Z" transform="translate(-18.13 -42.43)"/>
    <path class="ee2cb090-cdc1-4b8c-a81d-8f96b0073592" d="M164.59,226.22h18v9.12a7.34,7.34,0,0,1-7.33,7.32H172a7.34,7.34,0,0,1-7.34-7.32Z" transform="translate(-18.13 -42.43)"/>
    <path class="b56c8464-4440-4479-941c-bda63087ad45" d="M348.47,226.22H329.83v9.12a7.32,7.32,0,0,0,7.34,7.32h4a7.34,7.34,0,0,0,7.33-7.32Z" transform="translate(-18.13 -42.43)"/>
    <path class="a0d48085-96ca-4cb1-8db0-91afb953b205" d="M311.13,226.22H291.57v9.12a7.32,7.32,0,0,0,7.34,7.32h4.88a7.32,7.32,0,0,0,7.34-7.32Z" transform="translate(-18.13 -42.43)"/>
    <path class="b615bb02-dce5-4d25-8a3b-fbb360fdc9bd" d="M273.42,226.22H253.86v9.12a7.34,7.34,0,0,0,7.33,7.32h4.89a7.32,7.32,0,0,0,7.34-7.32Z" transform="translate(-18.13 -42.43)"/>
    <path class="f2cd65a9-29a9-4c46-b898-f3b5d32ad1ed" d="M235.84,226.22H218.11v9.12a7.32,7.32,0,0,0,7.34,7.32h3a7.32,7.32,0,0,0,7.34-7.32Z" transform="translate(-18.13 -42.43)"/>
    <path class="ee2cb090-cdc1-4b8c-a81d-8f96b0073592" d="M329.77,226.22H311.19v9.12a7.32,7.32,0,0,0,7.34,7.32h3.91a7.34,7.34,0,0,0,7.33-7.32Z" transform="translate(-18.13 -42.43)"/>
    <path class="ee2cb090-cdc1-4b8c-a81d-8f96b0073592" d="M291.63,226.22H273.42v9.12a7.34,7.34,0,0,0,7.33,7.32h3.55a7.34,7.34,0,0,0,7.33-7.32Z" transform="translate(-18.13 -42.43)"/>
    <path class="ee2cb090-cdc1-4b8c-a81d-8f96b0073592" d="M253.86,226.22h-18v9.12a7.32,7.32,0,0,0,7.33,7.32h3.29a7.32,7.32,0,0,0,7.34-7.32Z" transform="translate(-18.13 -42.43)"/>
    <path class="ee2cb090-cdc1-4b8c-a81d-8f96b0073592" d="M357.64,226.21V239a3.29,3.29,0,0,1-.39,1.57A3.22,3.22,0,0,1,353,242c-.23-.12-.44-.25-.68-.39a9.13,9.13,0,0,1-3.93-7.6v-7.75Z" transform="translate(-18.13 -42.43)"/>
    <path class="ee2cb090-cdc1-4b8c-a81d-8f96b0073592" d="M200.23,226.22h18v9.12a7.32,7.32,0,0,1-7.34,7.32h-3.3a7.32,7.32,0,0,1-7.32-7.32Z" transform="translate(-18.13 -42.43)"/>
    <path class="bef52f51-a6a5-4a62-8bb3-56cac431ef47" d="M352.4,231.6H66.07a5.1,5.1,0,0,1-4.23-2.21,5.11,5.11,0,0,1-.85-2.31,5.21,5.21,0,0,1,.35-2.44l12.18-29a5.17,5.17,0,0,1,1.89-2.27,5.22,5.22,0,0,1,2.84-.85H338.47a5.19,5.19,0,0,1,2.74.78,5.09,5.09,0,0,1,1.9,2.11l13.95,29a5.06,5.06,0,0,1-4.66,7.17Z" transform="translate(-18.13 -42.43)"/>
    <path class="aa8419e5-5308-4f95-b2bc-fa2c2bf7b2a4" d="M60.85,226.21v13.63a2.67,2.67,0,0,0,1,2.1,2.53,2.53,0,0,0,1.06.53,2.56,2.56,0,0,0,1.2,0,6.78,6.78,0,0,0,2-.93,9.1,9.1,0,0,0,3.94-7.6v-7.75Z" transform="translate(-18.13 -42.43)"/>
    <path class="bcb7949c-136e-41d5-b736-7200a833c532" d="M218.17,192.52H200.32v39.06h17.85Z" transform="translate(-18.13 -42.43)"/>
    <path class="bcb7949c-136e-41d5-b736-7200a833c532" d="M167.58,192.52,164.7,231.6h17.9l2.87-39.08Z" transform="translate(-18.13 -42.43)"/>
    <path class="bcb7949c-136e-41d5-b736-7200a833c532" d="M235,192.52l.93,39.08h17.89l-2.87-39.08Z" transform="translate(-18.13 -42.43)"/>
    <path class="bcb7949c-136e-41d5-b736-7200a833c532" d="M134.17,192.52l-7.3,39.08H145l5.33-39.08Z" transform="translate(-18.13 -42.43)"/>
    <path class="bcb7949c-136e-41d5-b736-7200a833c532" d="M266.17,192.52l7.28,39.08H291.6l-7.28-39.08Z" transform="translate(-18.13 -42.43)"/>
    <path class="bcb7949c-136e-41d5-b736-7200a833c532" d="M99.43,192.52,88.7,231.6h18.5l10.74-39.08Z" transform="translate(-18.13 -42.43)"/>
    <path class="bcb7949c-136e-41d5-b736-7200a833c532" d="M300.54,192.52l10.73,39.08h18.52l-10.74-39.08Z" transform="translate(-18.13 -42.43)"/>
    <path class="e675631a-8208-4e06-a352-b39eae7007a9" d="M78.27,192.52a5.17,5.17,0,0,0-4.73,3.11l-12.22,29a5,5,0,0,0-.35,2.44,5.21,5.21,0,0,0,.84,2.31,5.1,5.1,0,0,0,4.24,2.21H70l13.75-39.08Z" transform="translate(-18.13 -42.43)"/>
    <path class="bcb7949c-136e-41d5-b736-7200a833c532" d="M357.06,224.41l-13.95-29a5.09,5.09,0,0,0-1.9-2.11,5.19,5.19,0,0,0-2.74-.78h-3.75l13.75,39.08h3.93a5.12,5.12,0,0,0,2.46-.6,4.93,4.93,0,0,0,1.86-1.71,5.05,5.05,0,0,0,.34-4.88Z" transform="translate(-18.13 -42.43)"/>
    <path class="aa8419e5-5308-4f95-b2bc-fa2c2bf7b2a4" d="M342.76,186.72H74.09v7.81H342.76Z" transform="translate(-18.13 -42.43)"/>
    <path class="fb706f16-8210-4d11-95e2-4e7b2b41f35e" d="M98.84,186.72H83.16v7.81H98.84Z" transform="translate(-18.13 -42.43)"/>
    <path class="fe8aa4f7-aeec-4afc-8488-703da245be4e" d="M133.68,186.72H117.43v7.81h16.25Z" transform="translate(-18.13 -42.43)"/>
    <path class="a8b6105c-84ae-4735-8d21-29940bc81686" d="M167.35,186.72H150.23v7.81h17.12Z" transform="translate(-18.13 -42.43)"/>
    <path class="b78f5ec9-a5c4-4092-9f09-8a787e6382b9" d="M200.14,186.72H185.36v7.81h14.78Z" transform="translate(-18.13 -42.43)"/>
    <path class="b29338d7-a268-496e-9dd1-165fdbc41b27" d="M234.85,186.72H218.16v7.81h16.69Z" transform="translate(-18.13 -42.43)"/>
    <path class="a9a069d5-f294-40a1-a5cd-6c34a7adaabb" d="M266.47,186.72H251.1v7.81h15.37Z" transform="translate(-18.13 -42.43)"/>
    <path class="b09727d0-6281-42ed-a662-91b690e4b247" d="M301,186.72H284.77v7.81H301Z" transform="translate(-18.13 -42.43)"/>
    <path class="bba6d4cf-db82-4a62-a58e-a0cd44645cf1" d="M335.37,186.72H319.63v7.81h15.74Z" transform="translate(-18.13 -42.43)"/>
    <path class="b18b7cae-0dac-4d19-8a81-fbe4aea3d56a" d="M398.34,225.24h21.51v9.12a7.29,7.29,0,0,1-.56,2.8,7.36,7.36,0,0,1-1.59,2.38,7.28,7.28,0,0,1-2.38,1.58,7.38,7.38,0,0,1-2.81.56h-6.85a7.32,7.32,0,0,1-7.32-7.32Z" transform="translate(-18.13 -42.43)"/>
    <path class="bf28e697-5c38-4de2-a0f2-169cdd81cee9" d="M437.73,225.24h20.66v9.12a7.29,7.29,0,0,1-.56,2.8,7.36,7.36,0,0,1-1.59,2.38,7.18,7.18,0,0,1-2.38,1.58,7.34,7.34,0,0,1-2.81.56h-6a7.34,7.34,0,0,1-2.81-.56,7.18,7.18,0,0,1-2.38-1.58,7.36,7.36,0,0,1-1.59-2.38,7.29,7.29,0,0,1-.56-2.8Z" transform="translate(-18.13 -42.43)"/>
    <path class="a2ac2697-8f71-45f8-9d3a-24707a239a4a" d="M476.12,225.24H496.9v9.12a7.29,7.29,0,0,1-.56,2.8,7.36,7.36,0,0,1-1.59,2.38,7.18,7.18,0,0,1-2.38,1.58,7.34,7.34,0,0,1-2.81.56h-6.11a7.34,7.34,0,0,1-2.81-.56,7.21,7.21,0,0,1-4-4,7.29,7.29,0,0,1-.56-2.8Z" transform="translate(-18.13 -42.43)"/>
    <path class="be3951b4-85f4-4f36-8b93-16418aaf1b75" d="M514.87,225.24h21.51v9.12a7.34,7.34,0,0,1-7.33,7.32h-6.86a7.32,7.32,0,0,1-7.32-7.32Z" transform="translate(-18.13 -42.43)"/>
    <path class="ee2cb090-cdc1-4b8c-a81d-8f96b0073592" d="M419.76,225.24h18v9.12a7.47,7.47,0,0,1-.55,2.8,7.36,7.36,0,0,1-1.59,2.38,7.18,7.18,0,0,1-2.38,1.58,7.34,7.34,0,0,1-2.81.56h-3.3a7.44,7.44,0,0,1-5.19-2.14,7.36,7.36,0,0,1-1.59-2.38,7.29,7.29,0,0,1-.56-2.8Z" transform="translate(-18.13 -42.43)"/>
    <path class="ee2cb090-cdc1-4b8c-a81d-8f96b0073592" d="M458.27,225.24h18v9.12a7.29,7.29,0,0,1-.56,2.8,7.36,7.36,0,0,1-1.59,2.38,7.18,7.18,0,0,1-2.38,1.58,7.34,7.34,0,0,1-2.81.56h-3.3a7.34,7.34,0,0,1-7.33-7.32Z" transform="translate(-18.13 -42.43)"/>
    <path class="ee2cb090-cdc1-4b8c-a81d-8f96b0073592" d="M496.9,225.24h17.82v9.12a7.1,7.1,0,0,1-.55,2.8,7.36,7.36,0,0,1-1.59,2.38,7.18,7.18,0,0,1-2.38,1.58,7.29,7.29,0,0,1-2.8.56h-3.18a7.3,7.3,0,0,1-2.81-.56,7.18,7.18,0,0,1-2.38-1.58,7.36,7.36,0,0,1-1.59-2.38,7.28,7.28,0,0,1-.55-2.8Z" transform="translate(-18.13 -42.43)"/>
    <path class="ad22711c-4be9-46ca-bb3a-26527e463021" d="M546.13,231.43H388.5a5,5,0,0,1-2.35-.62,5,5,0,0,1-1.79-1.64,5,5,0,0,1-.44-4.69l11.76-29a5,5,0,0,1,1.81-2.26,5.06,5.06,0,0,1,2.77-.86H532.64a5,5,0,0,1,2.67.79,4.91,4.91,0,0,1,1.82,2.09l13.44,29a5,5,0,0,1,.48,2.43,5.12,5.12,0,0,1-.75,2.37,5.06,5.06,0,0,1-1.78,1.72A5.13,5.13,0,0,1,546.13,231.43Z" transform="translate(-18.13 -42.43)"/>
    <path class="ee2cb090-cdc1-4b8c-a81d-8f96b0073592" d="M536.38,225.24h14.67v9.12a7.3,7.3,0,0,1-2.16,5.18,7.18,7.18,0,0,1-2.38,1.58,7.32,7.32,0,0,1-10.13-6.76Z" transform="translate(-18.13 -42.43)"/>
    <path class="ee2cb090-cdc1-4b8c-a81d-8f96b0073592" d="M383.67,225.24h14.67v9.12a7.3,7.3,0,0,1-2.16,5.18,7.18,7.18,0,0,1-2.38,1.58,7.32,7.32,0,0,1-10.13-6.76Z" transform="translate(-18.13 -42.43)"/>
    <path class="bcb7949c-136e-41d5-b736-7200a833c532" d="M476.24,192.35H458.39v39.07h17.85Z" transform="translate(-18.13 -42.43)"/>
    <path class="bcb7949c-136e-41d5-b736-7200a833c532" d="M437.69,231.43l2.72-39.07H422.52l-2.71,39.07Z" transform="translate(-18.13 -42.43)"/>
    <path class="bcb7949c-136e-41d5-b736-7200a833c532" d="M514.83,231.43l-2.72-39.07H494.22l2.71,39.07Z" transform="translate(-18.13 -42.43)"/>
    <path class="bcb7949c-136e-41d5-b736-7200a833c532" d="M405.84,192.36h-5.58a5.06,5.06,0,0,0-2.77.86,5,5,0,0,0-1.81,2.26l-11.76,29a5,5,0,0,0,2.23,6.33,5,5,0,0,0,2.35.62h9.67Z" transform="translate(-18.13 -42.43)"/>
    <path class="bcb7949c-136e-41d5-b736-7200a833c532" d="M546.13,231.43a4.93,4.93,0,0,0,2.4-.65,5,5,0,0,0,1.8-1.72,5.09,5.09,0,0,0,.75-2.37,5,5,0,0,0-.47-2.44l-13.43-29a4.94,4.94,0,0,0-1.82-2.1,5,5,0,0,0-2.67-.79h-3.9l7.66,39.07Z" transform="translate(-18.13 -42.43)"/>
    <path class="aa8419e5-5308-4f95-b2bc-fa2c2bf7b2a4" d="M536.76,186.72H396.12v7.81H536.76Z" transform="translate(-18.13 -42.43)"/>
    <path class="a6da48bd-4983-4188-bffc-d7e478cc88cf" d="M422.26,186.72H405.43v7.81h16.83Z" transform="translate(-18.13 -42.43)"/>
    <path class="b29338d7-a268-496e-9dd1-165fdbc41b27" d="M458.36,186.72H440.27v7.81h18.09Z" transform="translate(-18.13 -42.43)"/>
    <path class="f2cd65a9-29a9-4c46-b898-f3b5d32ad1ed" d="M494.37,186.72H476.29v7.81h18.08Z" transform="translate(-18.13 -42.43)"/>
    <path class="ace061a9-2c4d-4ea8-b723-163c60bb4716" d="M529.21,186.72h-17v7.81h17Z" transform="translate(-18.13 -42.43)"/>
    <path class="a3afee2b-3db8-4d26-806e-0228562bc3ac" d="M80.27,373H379.19a2.8,2.8,0,0,1,2.8,2.8v1.12a2.78,2.78,0,0,1-2.8,2.79H80.27a2.85,2.85,0,0,1-1.08-.21A2.83,2.83,0,0,1,77.67,378a2.84,2.84,0,0,1-.22-1.07v-1.13a3.05,3.05,0,0,1,.22-1.07,2.76,2.76,0,0,1,.61-.9,2.62,2.62,0,0,1,.91-.6A2.88,2.88,0,0,1,80.27,373Z" transform="translate(-18.13 -42.43)"/>
    <path class="a2e2f4de-2dae-4f17-8f5c-7a4f8eaf0b3b" d="M560.75,372.94H535a2.8,2.8,0,0,0-2.8,2.8v1.13a2.8,2.8,0,0,0,2.8,2.8h25.73a2.8,2.8,0,0,0,2.8-2.8v-1.13A2.8,2.8,0,0,0,560.75,372.94Z" transform="translate(-18.13 -42.43)"/>
    <path class="bd60652b-5660-4671-9c6d-f57e230a494e" d="M421.15,370.06a3.86,3.86,0,0,1-2.69-1.12,3.81,3.81,0,0,1-1.12-2.68v-113a3.8,3.8,0,0,1,6.49-2.69,3.77,3.77,0,0,1,1.12,2.69v113a3.77,3.77,0,0,1-1.12,2.68A3.84,3.84,0,0,1,421.15,370.06Z" transform="translate(-18.13 -42.43)"/>
    <path class="b5f30bff-1d32-438d-87d2-a3d83c96f6a8" d="M485.88,291.29a3.85,3.85,0,0,1-2.68-1.12,3.77,3.77,0,0,1-1.12-2.68V263a3.75,3.75,0,0,1,1.12-2.68,3.81,3.81,0,0,1,6.49,2.68v24.45a3.84,3.84,0,0,1-.29,1.46,3.73,3.73,0,0,1-.82,1.24,3.61,3.61,0,0,1-1.24.83A3.67,3.67,0,0,1,485.88,291.29Z" transform="translate(-18.13 -42.43)"/>
    <path class="b5c16615-09c1-4511-b2ef-299099ae817f" d="M485.88,395.59a3.81,3.81,0,0,1-3.8-3.8v-48.9a3.8,3.8,0,0,1,6.49-2.68,3.79,3.79,0,0,1,1.12,2.68v48.9a3.81,3.81,0,0,1-3.81,3.8Z" transform="translate(-18.13 -42.43)"/>
    <path class="fd1f4220-b6d8-41c4-9a9c-3eff79d90d98" d="M641.53,399.94H620.72l3.09-38.48h14.64Z" transform="translate(-18.13 -42.43)"/>
    <path class="fd1f4220-b6d8-41c4-9a9c-3eff79d90d98" d="M633.8,183.66h-5.36V376.29h5.36Z" transform="translate(-18.13 -42.43)"/>
    <path class="fd1f4220-b6d8-41c4-9a9c-3eff79d90d98" d="M645.76,397.64H616.48v8.46h29.28Z" transform="translate(-18.13 -42.43)"/>
    <path class="fb25e8d2-8713-4bdb-90a1-d977a618f75a" d="M639.16,184.61H623.09l-6.43-45h28.93Z" transform="translate(-18.13 -42.43)"/>
    <path class="fd1f4220-b6d8-41c4-9a9c-3eff79d90d98" d="M642.65,178.19h-23v6.42h23Z" transform="translate(-18.13 -42.43)"/>
    <path class="fd1f4220-b6d8-41c4-9a9c-3eff79d90d98" d="M614.6,133.16l3.64-2.62a22.24,22.24,0,0,1,26.49.39l2.91,2.23V140h-33.1Z" transform="translate(-18.13 -42.43)"/>
    <path class="ab2a57d9-b1a8-4093-b98d-40427990ec9c" d="M54.74,405.81H652.39c5.91,0,10.74,2.87,10.74,6.41V439c0,3.54-4.81,6.4-10.74,6.4H54.74c-5.91,0-10.75-2.87-10.75-6.4v-26.8C44,408.69,48.8,405.81,54.74,405.81Z" transform="translate(-18.13 -42.43)"/>
    <path class="ea04fc93-e673-43f2-8d81-743deeafb985" d="M384.71,376.09a7.69,7.69,0,0,1,2.9,12,7.72,7.72,0,0,1-3.93,2.54c1.84.35,3.76,3.36,1,7.22s-6.33,3.39-8.07,4.08c-8.67,3.36-14.25,2.76-23.17.15a11,11,0,0,1-6.28-4c-1.39-2.11-1.43-5.27.48-6.95a8.4,8.4,0,0,1-2.45-12.35,8.5,8.5,0,0,1,3.77-2.79,11.15,11.15,0,0,1,8.07-19c-2.92-3.87-3.54-9.7-.52-13.49s9.86-4.09,12.45,0a7.8,7.8,0,0,1,9,12.62c3.43,2.28,6.8,5,8.55,8.67S387.9,373.47,384.71,376.09Z" transform="translate(-18.13 -42.43)"/>
    <path class="a3796719-fab0-4ef8-a926-7f05d88bd40a" d="M377,404.89H352.63l4,21H373Z" transform="translate(-18.13 -42.43)"/>
    <path class="a3796719-fab0-4ef8-a926-7f05d88bd40a" d="M378.68,400.81H351a1.5,1.5,0,0,0-1.5,1.5v2.79a1.5,1.5,0,0,0,1.5,1.5h27.71a1.5,1.5,0,0,0,1.5-1.5v-2.79A1.5,1.5,0,0,0,378.68,400.81Z" transform="translate(-18.13 -42.43)"/>
    <path class="fe16555d-88b1-4e7b-aa0c-4c43686277c2" d="M363.18,342.37c-12.15,3.77-4.31,17.45,1.59,23.18l3.14-5.37c-5.28-1.18-10.18-2.28-14.51,1.64a9.43,9.43,0,0,0-2.23,3.14,9.48,9.48,0,0,0,0,7.53,9.43,9.43,0,0,0,2.23,3.14c3,2.88,7.55-1.66,4.55-4.55-2.09-2-.82-4.86,1.56-5.65,1.88-.63,4.83.53,6.69,1,3,.67,5.54-3.05,3.13-5.39-1.83-1.77-9.56-10.84-4.43-12.43C368.86,347.39,367.17,341.13,363.18,342.37Z" transform="translate(-18.13 -42.43)"/>
    <path class="fe16555d-88b1-4e7b-aa0c-4c43686277c2" d="M353.31,380.53c-2.3,3.66-.94,8.94,1.19,12.42,3,5,10.09,5.39,15,3.46,3.81-1.51,2.15-7.75-1.71-6.21a10.93,10.93,0,0,1-4.25.92,6.86,6.86,0,0,1-1.94-.41c-.44-.15-1.69-1.29-1.5-1-.95-1.38-2.1-4.39-1.18-5.9,2.22-3.54-3.36-6.75-5.57-3.25Z" transform="translate(-18.13 -42.43)"/>
    <path class="fe16555d-88b1-4e7b-aa0c-4c43686277c2" d="M377.05,378.5a9.4,9.4,0,0,0,3-2,3.21,3.21,0,0,0-4.55-4.54,4.61,4.61,0,0,1-.4.37h0a10.13,10.13,0,0,1-1.28.63c-1.62.68-1.95,3-1.18,4.4a3.32,3.32,0,0,0,4.41,1.18Z" transform="translate(-18.13 -42.43)"/>
    <path class="be11c451-25f0-4325-8025-d9c64aae8a50" d="M373.81,401H353.54a1.41,1.41,0,0,0-1.41,1.4v0a1.41,1.41,0,0,0,1.41,1.4h20.27a1.41,1.41,0,0,0,1.41-1.4v0A1.41,1.41,0,0,0,373.81,401Z" transform="translate(-18.13 -42.43)"/>
    <path class="ea04fc93-e673-43f2-8d81-743deeafb985" d="M588.82,376.09a7.69,7.69,0,0,1-1,14.5c1.83.35,3.76,3.36,1,7.22s-6.32,3.39-8.07,4.08c-8.66,3.36-14.24,2.76-23.17.15a10.92,10.92,0,0,1-6.27-4c-1.41-2.11-1.43-5.27.46-6.95a8.38,8.38,0,0,1-4.13-8,8.28,8.28,0,0,1,1.69-4.36,8.41,8.41,0,0,1,3.76-2.79,11.17,11.17,0,0,1-2.31-12.18,11.19,11.19,0,0,1,10.4-6.79c-2.92-3.87-3.55-9.7-.52-13.49s9.85-4.09,12.44,0a7.81,7.81,0,0,1,9.06,12.64c3.42,2.28,6.79,5,8.54,8.68S592,373.47,588.82,376.09Z" transform="translate(-18.13 -42.43)"/>
    <path class="a3796719-fab0-4ef8-a926-7f05d88bd40a" d="M581.11,404.89H556.74l4,21h16.38Z" transform="translate(-18.13 -42.43)"/>
    <path class="a3796719-fab0-4ef8-a926-7f05d88bd40a" d="M582.78,400.81h-27.7a1.51,1.51,0,0,0-1.51,1.5v2.79a1.51,1.51,0,0,0,1.51,1.5h27.7a1.5,1.5,0,0,0,1.5-1.5v-2.79A1.5,1.5,0,0,0,582.78,400.81Z" transform="translate(-18.13 -42.43)"/>
    <path class="fe16555d-88b1-4e7b-aa0c-4c43686277c2" d="M567.29,342.37c-12.15,3.77-4.33,17.45,1.58,23.18l3.13-5.37c-5.27-1.18-10.16-2.28-14.5,1.64a9.26,9.26,0,0,0-2.22,3.14,9.37,9.37,0,0,0,0,7.53,9.26,9.26,0,0,0,2.22,3.14c3,2.88,7.55-1.66,4.56-4.55-2.09-2-.81-4.86,1.56-5.65,1.88-.63,4.84.53,6.68,1,3.05.67,5.55-3.05,3.14-5.39-1.83-1.77-9.56-10.84-4.43-12.43,4-1.18,2.27-7.44-1.71-6.2Z" transform="translate(-18.13 -42.43)"/>
    <path class="fe16555d-88b1-4e7b-aa0c-4c43686277c2" d="M557.42,380.53c-2.37,3.66-1,8.94,1.18,12.42,3,5,10.09,5.39,15,3.46,3.81-1.51,2.14-7.75-1.71-6.21a11.07,11.07,0,0,1-4.25.92,6.72,6.72,0,0,1-1.93-.41c-.45-.15-1.69-1.29-1.5-1-1-1.38-2.11-4.39-1.19-5.9,2.23-3.54-3.35-6.75-5.56-3.25Z" transform="translate(-18.13 -42.43)"/>
    <path class="fe16555d-88b1-4e7b-aa0c-4c43686277c2" d="M581.15,378.5a9.3,9.3,0,0,0,3-2,3.21,3.21,0,0,0-4.55-4.54,4.61,4.61,0,0,1-.4.37c.29-.22.26-.22,0,0a10,10,0,0,1-1.27.63c-1.62.68-2,3-1.19,4.4a3.32,3.32,0,0,0,4.41,1.18Z" transform="translate(-18.13 -42.43)"/>
    <path class="be11c451-25f0-4325-8025-d9c64aae8a50" d="M577.91,401H557.64a1.41,1.41,0,0,0-1.41,1.4v0a1.41,1.41,0,0,0,1.41,1.4h20.27a1.41,1.41,0,0,0,1.41-1.4v0A1.41,1.41,0,0,0,577.91,401Z" transform="translate(-18.13 -42.43)"/>
    <path class="e0acfae7-523c-4b39-8ae1-363a932e9c09" d="M98.94,265.73c-.43.08-.86.17-1.29.29s-.74.22-1.11.34a.38.38,0,0,0,0-.15c.4-.16.8-.33,1.18-.47h-1a7.25,7.25,0,0,1,.61-1,17.82,17.82,0,0,1,2.8-.48,21.18,21.18,0,0,0,0,2.76c-.3.35-.67.73-1.06,1.18a10.3,10.3,0,0,0-.13-1.1C98.91,266.7,99,266.16,98.94,265.73Z" transform="translate(-18.13 -42.43)"/>
    <path class="b05a3ba5-9e75-4991-8988-36f61d2aad19" d="M97,270.17v0l1-1c-.13-.6-.23-1.2-.3-1.81-.58.19-1.16.4-1.74.64a13.42,13.42,0,0,0-.22,1.53c0,.8,0,1.34.15,1.39S96.47,270.67,97,270.17Z" transform="translate(-18.13 -42.43)"/>
    <path class="be8f7d8e-8c5b-4b11-b25d-630e702ed427" d="M98.45,268v.79l-.42.4a.92.92,0,0,0-.1-.5c-.08-.43-.14-.87-.2-1.32-.41.13-.84.28-1.25.44l-.5.2c.09-.35.19-.72.31-1.08l.72-.35H96.4a1.17,1.17,0,0,1,.09-.24c.37-.13.75-.24,1.11-.35s.87-.21,1.29-.29A8.35,8.35,0,0,0,99,267c.07.44.08.73.13,1.1l-.45.44A2.85,2.85,0,0,0,98.45,268Z" transform="translate(-18.13 -42.43)"/>
    <path class="f58b4235-4b44-4abf-b772-c8898ead6074" d="M97.41,264.75a4.22,4.22,0,0,1,.9-.94l1-.77a18.56,18.56,0,0,1,2.36-.12,19,19,0,0,0-.25,2.26c-.11.17-.23.33-.33.5a5.32,5.32,0,0,0-.15-.84c-.08.5-.14,1-.19,1.48a5.17,5.17,0,0,1-.52.71,21.34,21.34,0,0,1,0-2.77A18.13,18.13,0,0,0,97.41,264.75Z" transform="translate(-18.13 -42.43)"/>
    <path class="e0acfae7-523c-4b39-8ae1-363a932e9c09" d="M101.68,262.88h-1.31l-1,.08.41-.3c.31-.07.61-.12.92-.17a5.67,5.67,0,0,0-.57-.1,12.07,12.07,0,0,1,1.19-.83,9.69,9.69,0,0,1,1.84.12,15.11,15.11,0,0,0-.4,1.77l-.43.47a1.39,1.39,0,0,0-.12-.38v.5c-.29.34-.59.7-.85,1.06a4.26,4.26,0,0,1,.07-.94C101.51,263.84,101.61,263.32,101.68,262.88Z" transform="translate(-18.13 -42.43)"/>
    <path class="f58b4235-4b44-4abf-b772-c8898ead6074" d="M100.37,263h1.31c-.07.44-.13.88-.18,1.31a4.35,4.35,0,0,1-.07.95,19.22,19.22,0,0,1,.25-2.27,18.56,18.56,0,0,0-2.36.12Z" transform="translate(-18.13 -42.43)"/>
    <path class="f0a6ede4-f888-470d-9f68-bbfba59a0a6a" d="M103.25,261.69a11.75,11.75,0,0,0-1.32-.11h-.51a6,6,0,0,1,.72-.35h.14l-.08-.06c.69-.26,1.24-.26,1.5.18s-.16,1.28-.86,2.08a1,1,0,0,1,.09-.49C103,262.54,103.13,262.11,103.25,261.69Z" transform="translate(-18.13 -42.43)"/>
    <path class="e0acfae7-523c-4b39-8ae1-363a932e9c09" d="M101.42,261.6h.5a11.73,11.73,0,0,1,1.32.1c-.12.43-.22.85-.31,1.28a4,4,0,0,1-.09.48,15.11,15.11,0,0,1,.4-1.77C102.6,261.64,102,261.61,101.42,261.6Z" transform="translate(-18.13 -42.43)"/>
    <path class="ac2064bf-ebe2-45b5-8cf8-d5fe034081c9" d="M96.1,270.57a20,20,0,0,1,10.25-10.78l.11.27A19.8,19.8,0,0,0,96.1,270.57Z" transform="translate(-18.13 -42.43)"/>
    <path class="f58b4235-4b44-4abf-b772-c8898ead6074" d="M101.77,274c-.44.49-.86,1-1.27,1.56s-.69.94-1,1.44l-.06-.24c.32-.58.65-1.18,1-1.69-.39.32-.77.65-1.19,1a9.89,9.89,0,0,1-.17-1.8,29.18,29.18,0,0,1,2.9-3.18,26.25,26.25,0,0,0,2.45,3.29,16.53,16.53,0,0,1-.28,2.36c-.38-.37-.76-.77-1.13-1.18S102.19,274.55,101.77,274Z" transform="translate(-18.13 -42.43)"/>
    <path class="e0acfae7-523c-4b39-8ae1-363a932e9c09" d="M103.43,281.13c-.2,1.1-.38,1.91-.57,1.95s-.77-.52-1.42-1.52c.25-.48.5-1,.76-1.43C102.6,280.47,103,280.82,103.43,281.13Z" transform="translate(-18.13 -42.43)"/>
    <path class="e0acfae7-523c-4b39-8ae1-363a932e9c09" d="M101.42,281.51a13.63,13.63,0,0,1-1.09-2c.48-.82,1-1.62,1.5-2.36a26.87,26.87,0,0,0,2,1.88c-.12.75-.25,1.47-.36,2.1-.42-.33-.84-.67-1.25-1C101.92,280.53,101.66,281,101.42,281.51Z" transform="translate(-18.13 -42.43)"/>
    <path class="e0acfae7-523c-4b39-8ae1-363a932e9c09" d="M102.2,280.13c-.26.46-.51.95-.76,1.43.24-.5.5-1,.77-1.46.42.36.83.7,1.25,1C103,280.82,102.6,280.47,102.2,280.13Z" transform="translate(-18.13 -42.43)"/>
    <path class="f0a6ede4-f888-470d-9f68-bbfba59a0a6a" d="M103.19,277.12l.76.89-.14.88-.57-.51c-.48-.45-.95-.91-1.41-1.39-.39.54-.75,1.11-1.12,1.7l-.4.7a15.41,15.41,0,0,1-.6-1.6c.17-.36.36-.72.55-1.07l-.68.64a1.78,1.78,0,0,0-.1-.38c.33-.5.66-1,1-1.44s.84-1.06,1.27-1.56c.42.52.83,1,1.27,1.51s.74.82,1.12,1.18l-.14.95Z" transform="translate(-18.13 -42.43)"/>
    <path class="b05a3ba5-9e75-4991-8988-36f61d2aad19" d="M99.06,274.28a6.12,6.12,0,0,1,.22-2c.19-.57.36-1.19.53-1.87a29.16,29.16,0,0,1,2.67-2.3,26.24,26.24,0,0,0,1.72,2.94,6.91,6.91,0,0,0,0,.91c-.32-.29-.63-.57-.92-.87.33.68.69,1.33,1.07,1.95a7.17,7.17,0,0,1,0,1.31,26.25,26.25,0,0,1-2.45-3.29A29.58,29.58,0,0,0,99.06,274.28Z" transform="translate(-18.13 -42.43)"/>
    <path class="f58b4235-4b44-4abf-b772-c8898ead6074" d="M102.53,268.08c-.52.39-1,.81-1.55,1.26s-.74.66-1.1,1c.07-.26.14-.5.22-.75.3-.36.62-.71,1-1.06-.26.13-.52.26-.76.4a17.68,17.68,0,0,1,.73-2.12,20.14,20.14,0,0,1,2.36-1.57c.33.84.69,1.68,1.1,2.49a3.9,3.9,0,0,1-.08.95l-.5-.33.48.57a17.84,17.84,0,0,0-.09,2.06c-.26-.38-.51-.77-.75-1.18S102.83,268.67,102.53,268.08Z" transform="translate(-18.13 -42.43)"/>
    <path class="e0acfae7-523c-4b39-8ae1-363a932e9c09" d="M101,269.34c.51-.45,1-.87,1.55-1.26.3.59.62,1.18,1,1.73s.49.81.75,1.18v.09a27.08,27.08,0,0,1-1.71-2.94,27.88,27.88,0,0,0-2.67,2.3v-.1C100.24,270,100.6,269.67,101,269.34Z" transform="translate(-18.13 -42.43)"/>
    <path class="be8f7d8e-8c5b-4b11-b25d-630e702ed427" d="M103.35,265.18c-.57.35-1.13.71-1.68,1.11l-.6.45a8.11,8.11,0,0,1,.54-1.11l.2-.08h-.15c.59-1,1.25-1.48,2-1.18,1,.39.93,1.69.8,3.28l-.31-.65A11.65,11.65,0,0,1,103.35,265.18Z" transform="translate(-18.13 -42.43)"/>
    <path class="be8f7d8e-8c5b-4b11-b25d-630e702ed427" d="M101,266.83v-.09l.6-.45c.56-.4,1.11-.76,1.68-1.11.24.63.48,1.24.77,1.83.09.22.2.44.31.65v.09a26.17,26.17,0,0,1-1.1-2.49C102.6,265.73,101.77,266.26,101,266.83Z" transform="translate(-18.13 -42.43)"/>
    <path class="ac2064bf-ebe2-45b5-8cf8-d5fe034081c9" d="M102.68,282.46A30.91,30.91,0,0,1,105.36,260l.37.21A30.72,30.72,0,0,0,102.68,282.46Z" transform="translate(-18.13 -42.43)"/>
    <path class="f58b4235-4b44-4abf-b772-c8898ead6074" d="M107.15,288.08a2.38,2.38,0,0,1-.83-.18,2.08,2.08,0,0,1-.7-.48,2,2,0,0,1-.46-.71,2.12,2.12,0,0,1-.16-.83v-37a2.23,2.23,0,0,1,.57-1.63,2.27,2.27,0,0,1,.72-.5,2.11,2.11,0,0,1,.86-.18,2.14,2.14,0,0,1,.86.18,2.23,2.23,0,0,1,.71.5,2.12,2.12,0,0,1,.57,1.63v37a2.15,2.15,0,0,1-.61,1.54,2.08,2.08,0,0,1-.7.48A2.33,2.33,0,0,1,107.15,288.08Z" transform="translate(-18.13 -42.43)"/>
    <path class="f58b4235-4b44-4abf-b772-c8898ead6074" d="M111.57,285.59a2.43,2.43,0,0,1-.83-.18,2.08,2.08,0,0,1-.7-.48,2,2,0,0,1-.46-.71,2.15,2.15,0,0,1-.16-.83v-34.6a2.23,2.23,0,0,1,.57-1.63,2.27,2.27,0,0,1,.72-.5,2.11,2.11,0,0,1,.86-.18,2.14,2.14,0,0,1,.86.18,2.23,2.23,0,0,1,.71.5,2.12,2.12,0,0,1,.57,1.63v34.58a2.09,2.09,0,0,1-.6,1.55,2.27,2.27,0,0,1-.7.49A2.43,2.43,0,0,1,111.57,285.59Z" transform="translate(-18.13 -42.43)"/>
    <path class="f58b4235-4b44-4abf-b772-c8898ead6074" d="M116,283.09a2.09,2.09,0,0,1-1.52-.65,2,2,0,0,1-.46-.71,2.15,2.15,0,0,1-.16-.83V248.69a2.16,2.16,0,0,1,.12-.87,2.21,2.21,0,0,1,.45-.75,2.15,2.15,0,0,1,.72-.51,2.14,2.14,0,0,1,1.72,0,2.25,2.25,0,0,1,.72.51,2.21,2.21,0,0,1,.45.75,2,2,0,0,1,.11.87V280.9a2.1,2.1,0,0,1-.62,1.54,2,2,0,0,1-.7.48A2.12,2.12,0,0,1,116,283.09Z" transform="translate(-18.13 -42.43)"/>
    <path class="f58b4235-4b44-4abf-b772-c8898ead6074" d="M120.41,280.66a2.11,2.11,0,0,1-.82-.17,2.08,2.08,0,0,1-.7-.48,2.17,2.17,0,0,1-.62-1.53v-29.9a2.09,2.09,0,0,1,.12-.86,2.25,2.25,0,0,1,.45-.76,2.22,2.22,0,0,1,.72-.5,2.18,2.18,0,0,1,2.44.5,2.25,2.25,0,0,1,.45.76,2.09,2.09,0,0,1,.12.86v29.84a2.23,2.23,0,0,1-.14.85,2.15,2.15,0,0,1-1.17,1.22A2.26,2.26,0,0,1,120.41,280.66Z" transform="translate(-18.13 -42.43)"/>
    <path class="f58b4235-4b44-4abf-b772-c8898ead6074" d="M124.85,278.12a2.15,2.15,0,0,1-2.15-2.18V248.48a2,2,0,0,1,.11-.87,2.12,2.12,0,0,1,.45-.75,2.25,2.25,0,0,1,.72-.51,2.14,2.14,0,0,1,1.72,0,2.15,2.15,0,0,1,.72.51,2.19,2.19,0,0,1,.57,1.62v27.46a2.17,2.17,0,0,1-2.14,2.18Z" transform="translate(-18.13 -42.43)"/>
    <path class="f58b4235-4b44-4abf-b772-c8898ead6074" d="M129.27,275.63a2.17,2.17,0,0,1-2.15-2.19V248.37a2.13,2.13,0,0,1,.63-1.52,2.15,2.15,0,0,1,3.67,1.52v25.07a2.19,2.19,0,0,1-2.15,2.19Z" transform="translate(-18.13 -42.43)"/>
    <path class="be8f7d8e-8c5b-4b11-b25d-630e702ed427" d="M108.23,247a2.36,2.36,0,0,1,.28,1.1v37a2.1,2.1,0,0,1-.62,1.54,2.08,2.08,0,0,1-.7.48,2.33,2.33,0,0,1-.83.18,2.08,2.08,0,0,1-1.06-.31,2.11,2.11,0,0,0,.77.8,2.07,2.07,0,0,0,1.08.3,2.33,2.33,0,0,0,.83-.18,2.08,2.08,0,0,0,.7-.48,2.12,2.12,0,0,0,.46-.71,1.94,1.94,0,0,0,.15-.83v-37a2.12,2.12,0,0,0-.28-1.1A2.16,2.16,0,0,0,108.23,247Z" transform="translate(-18.13 -42.43)"/>
    <path class="be8f7d8e-8c5b-4b11-b25d-630e702ed427" d="M112.65,246.91a2.2,2.2,0,0,1,.28,1.1V282.6a2.16,2.16,0,0,1-.61,1.54,2.18,2.18,0,0,1-1.53.65,2.1,2.1,0,0,1-1.07-.3,2.11,2.11,0,0,0,.77.8,2.17,2.17,0,0,0,1.08.3,2.33,2.33,0,0,0,.83-.18,2.08,2.08,0,0,0,.7-.48,2.15,2.15,0,0,0,.61-1.54v-34.6a2.26,2.26,0,0,0-.28-1.08A2.22,2.22,0,0,0,112.65,246.91Z" transform="translate(-18.13 -42.43)"/>
    <path class="be8f7d8e-8c5b-4b11-b25d-630e702ed427" d="M117.07,246.8a2.13,2.13,0,0,1,.29,1.1v32.21a2.14,2.14,0,0,1-3.22,1.9,2,2,0,0,0,.78.79,2.15,2.15,0,0,0,1.07.29,2.12,2.12,0,0,0,.83-.17,2,2,0,0,0,.7-.48,2.1,2.1,0,0,0,.62-1.54V248.69a2.26,2.26,0,0,0-.28-1.08A2.19,2.19,0,0,0,117.07,246.8Z" transform="translate(-18.13 -42.43)"/>
    <path class="be8f7d8e-8c5b-4b11-b25d-630e702ed427" d="M121.51,246.68a2.17,2.17,0,0,1,.3,1.1v29.84a2.19,2.19,0,0,1-.16.83,2.07,2.07,0,0,1-.46.71,2.24,2.24,0,0,1-.7.48,2.14,2.14,0,0,1-1.91-.12,2.14,2.14,0,0,0,2.44,1,2.14,2.14,0,0,0,1.57-2.12V248.58a2.22,2.22,0,0,0-.29-1.09A2.27,2.27,0,0,0,121.51,246.68Z" transform="translate(-18.13 -42.43)"/>
    <path class="be8f7d8e-8c5b-4b11-b25d-630e702ed427" d="M125.92,246.58a2.47,2.47,0,0,1,.29,1.1v27.45a2.21,2.21,0,0,1-.62,1.54,2.38,2.38,0,0,1-.69.48,2.2,2.2,0,0,1-.83.17A2.16,2.16,0,0,1,123,277a2.21,2.21,0,0,0,.78.8,2.12,2.12,0,0,0,2.6-.36,2.21,2.21,0,0,0,.62-1.54V248.48a2.3,2.3,0,0,0-.28-1.09A2.19,2.19,0,0,0,125.92,246.58Z" transform="translate(-18.13 -42.43)"/>
    <path class="be8f7d8e-8c5b-4b11-b25d-630e702ed427" d="M130.34,246.42a2.17,2.17,0,0,1,.3,1.1v25.11a2.2,2.2,0,0,1-.16.84,2.17,2.17,0,0,1-.46.71,2.42,2.42,0,0,1-.7.48,2.2,2.2,0,0,1-.83.17,2.07,2.07,0,0,1-1.08-.3,2.15,2.15,0,0,0,1.86,1.1,2.19,2.19,0,0,0,2.15-2.19V248.37a2.22,2.22,0,0,0-.28-1.12A2.19,2.19,0,0,0,130.34,246.42Z" transform="translate(-18.13 -42.43)"/>
    <path class="ac2064bf-ebe2-45b5-8cf8-d5fe034081c9" d="M108.83,261.68a.32.32,0,0,1-.14,0l-.12-.08L104.78,258l-.1-.12a.83.83,0,0,1,0-.15.77.77,0,0,1,0-.15.64.64,0,0,1,.08-.14.94.94,0,0,1,.12-.09.42.42,0,0,1,.15,0l.15,0a.39.39,0,0,1,.14.08l3.79,3.54a.43.43,0,0,1,.11.28.41.41,0,0,1-.37.42Z" transform="translate(-18.13 -42.43)"/>
    <path class="ac2064bf-ebe2-45b5-8cf8-d5fe034081c9" d="M105,261.68a.48.48,0,0,1-.3-.13.44.44,0,0,1-.11-.29.43.43,0,0,1,.11-.28l3.8-3.54a.36.36,0,0,1,.28-.1.46.46,0,0,1,.27.13.43.43,0,0,1,.1.29.46.46,0,0,1-.13.27l-3.8,3.54A.39.39,0,0,1,105,261.68Z" transform="translate(-18.13 -42.43)"/>
    <path class="ac2064bf-ebe2-45b5-8cf8-d5fe034081c9" d="M108.58,257.76h-3.43a.33.33,0,0,1-.17,0,.28.28,0,0,1-.15-.08.38.38,0,0,1-.11-.14.47.47,0,0,1,0-.17.53.53,0,0,1,0-.17.35.35,0,0,1,.11-.13A.28.28,0,0,1,105,257a.33.33,0,0,1,.17,0h3.43a.36.36,0,0,1,.24.13.44.44,0,0,1,.1.26.4.4,0,0,1-.1.26A.42.42,0,0,1,108.58,257.76Z" transform="translate(-18.13 -42.43)"/>
    <path class="ac2064bf-ebe2-45b5-8cf8-d5fe034081c9" d="M108.58,262.15h-3.42a.37.37,0,0,1-.18,0,.28.28,0,0,1-.15-.08.38.38,0,0,1-.11-.14.36.36,0,0,1,0-.33.38.38,0,0,1,.11-.14.28.28,0,0,1,.15-.08.37.37,0,0,1,.18,0h3.42a.37.37,0,0,1,.24.14.39.39,0,0,1,.1.25.4.4,0,0,1-.1.26A.37.37,0,0,1,108.58,262.15Z" transform="translate(-18.13 -42.43)"/>
    <path class="ac2064bf-ebe2-45b5-8cf8-d5fe034081c9" d="M113.35,261.68a.32.32,0,0,1-.14,0,.36.36,0,0,1-.12-.08L109.28,258a.41.41,0,0,1,0-.56l.12-.08.15,0,.15,0a.36.36,0,0,1,.12.08l3.81,3.55a.39.39,0,0,1,.11.28.41.41,0,0,1-.11.28.35.35,0,0,1-.13.08A.39.39,0,0,1,113.35,261.68Z" transform="translate(-18.13 -42.43)"/>
    <path class="ac2064bf-ebe2-45b5-8cf8-d5fe034081c9" d="M109.54,261.68a.32.32,0,0,1-.16,0,.34.34,0,0,1-.12-.09.4.4,0,0,1-.12-.29.39.39,0,0,1,.12-.28l3.79-3.54a.38.38,0,0,1,.13-.09.39.39,0,0,1,.3,0,.38.38,0,0,1,.13.09.39.39,0,0,1,.11.28.39.39,0,0,1-.11.27l-3.81,3.55a.31.31,0,0,1-.11.09A.44.44,0,0,1,109.54,261.68Z" transform="translate(-18.13 -42.43)"/>
    <path class="ac2064bf-ebe2-45b5-8cf8-d5fe034081c9" d="M113.09,257.76h-3.4a.49.49,0,0,1-.24-.14.39.39,0,0,1-.09-.26.43.43,0,0,1,.09-.26.41.41,0,0,1,.24-.13h3.43a.38.38,0,0,1,.24.13.43.43,0,0,1,.09.26.39.39,0,0,1-.09.26.45.45,0,0,1-.24.14Z" transform="translate(-18.13 -42.43)"/>
    <path class="ac2064bf-ebe2-45b5-8cf8-d5fe034081c9" d="M113.09,262.15h-3.4a.37.37,0,0,1-.23-.14.35.35,0,0,1-.1-.26.35.35,0,0,1,.1-.25.37.37,0,0,1,.23-.14h3.43a.4.4,0,0,1,.24.14.38.38,0,0,1,.09.25.39.39,0,0,1-.09.26.4.4,0,0,1-.24.14Z" transform="translate(-18.13 -42.43)"/>
    <path class="ac2064bf-ebe2-45b5-8cf8-d5fe034081c9" d="M117.85,261.68a.32.32,0,0,1-.14,0,.36.36,0,0,1-.12-.08L113.8,258a.53.53,0,0,1-.1-.12.83.83,0,0,1,0-.15.77.77,0,0,1,0-.15.64.64,0,0,1,.08-.14.54.54,0,0,1,.12-.09.42.42,0,0,1,.15,0l.15,0a.39.39,0,0,1,.14.08l3.79,3.54a.43.43,0,0,1,.11.28.41.41,0,0,1-.37.42Z" transform="translate(-18.13 -42.43)"/>
    <path class="ac2064bf-ebe2-45b5-8cf8-d5fe034081c9" d="M114.06,261.68a.46.46,0,0,1-.3-.13.44.44,0,0,1-.11-.29.43.43,0,0,1,.11-.28l3.79-3.54a.38.38,0,0,1,.29-.1.46.46,0,0,1,.27.13.43.43,0,0,1,.1.29.42.42,0,0,1-.14.27l-3.79,3.54A.39.39,0,0,1,114.06,261.68Z" transform="translate(-18.13 -42.43)"/>
    <path class="ac2064bf-ebe2-45b5-8cf8-d5fe034081c9" d="M117.6,257.76h-3.43a.49.49,0,0,1-.24-.14.39.39,0,0,1-.09-.26.43.43,0,0,1,.09-.26.41.41,0,0,1,.24-.13h3.43a.38.38,0,0,1,.24.13.43.43,0,0,1,.09.26.39.39,0,0,1-.09.26A.45.45,0,0,1,117.6,257.76Z" transform="translate(-18.13 -42.43)"/>
    <path class="ac2064bf-ebe2-45b5-8cf8-d5fe034081c9" d="M117.6,262.15h-3.43a.43.43,0,0,1-.24-.14.39.39,0,0,1-.09-.26.38.38,0,0,1,.09-.25.43.43,0,0,1,.24-.14h3.43a.4.4,0,0,1,.24.14.38.38,0,0,1,.09.25.39.39,0,0,1-.09.26A.4.4,0,0,1,117.6,262.15Z" transform="translate(-18.13 -42.43)"/>
    <path class="ac2064bf-ebe2-45b5-8cf8-d5fe034081c9" d="M122.36,261.68l-.14,0-.12-.08L118.3,258a.41.41,0,0,1,0-.56.41.41,0,0,1,.13-.08.33.33,0,0,1,.15,0l.15,0,.12.08,3.8,3.55a.39.39,0,0,1,.11.28.41.41,0,0,1-.11.28.46.46,0,0,1-.13.08A.41.41,0,0,1,122.36,261.68Z" transform="translate(-18.13 -42.43)"/>
    <path class="ac2064bf-ebe2-45b5-8cf8-d5fe034081c9" d="M118.56,261.68a.29.29,0,0,1-.16,0,.38.38,0,0,1-.13-.09.44.44,0,0,1-.11-.29.43.43,0,0,1,.11-.28l3.81-3.54a.38.38,0,0,1,.13-.09.32.32,0,0,1,.14,0,.4.4,0,0,1,.15,0,.27.27,0,0,1,.12.09.36.36,0,0,1,.12.28.36.36,0,0,1-.12.27l-3.79,3.55A.42.42,0,0,1,118.56,261.68Z" transform="translate(-18.13 -42.43)"/>
    <path class="ac2064bf-ebe2-45b5-8cf8-d5fe034081c9" d="M122.1,257.76h-3.42a.42.42,0,0,1-.24-.14.4.4,0,0,1-.1-.26.44.44,0,0,1,.1-.26.36.36,0,0,1,.24-.13h3.42a.36.36,0,0,1,.24.13.44.44,0,0,1,.1.26.4.4,0,0,1-.1.26A.42.42,0,0,1,122.1,257.76Z" transform="translate(-18.13 -42.43)"/>
    <path class="ac2064bf-ebe2-45b5-8cf8-d5fe034081c9" d="M122.1,262.15h-3.42a.37.37,0,0,1-.24-.14.4.4,0,0,1-.1-.26.39.39,0,0,1,.1-.25.37.37,0,0,1,.24-.14h3.42a.37.37,0,0,1,.24.14.39.39,0,0,1,.1.25.4.4,0,0,1-.1.26A.37.37,0,0,1,122.1,262.15Z" transform="translate(-18.13 -42.43)"/>
    <path class="ac2064bf-ebe2-45b5-8cf8-d5fe034081c9" d="M126.87,261.68a.32.32,0,0,1-.14,0,.36.36,0,0,1-.12-.08l-3.8-3.54a.47.47,0,0,1-.09-.12.42.42,0,0,1,0-.15.41.41,0,0,1,.1-.29.38.38,0,0,1,.12-.09.42.42,0,0,1,.15,0l.15,0a.35.35,0,0,1,.13.08l3.8,3.54a.43.43,0,0,1,.11.28.41.41,0,0,1-.37.42Z" transform="translate(-18.13 -42.43)"/>
    <path class="ac2064bf-ebe2-45b5-8cf8-d5fe034081c9" d="M123.07,261.68a.46.46,0,0,1-.29-.13.44.44,0,0,1-.11-.29.43.43,0,0,1,.11-.28l3.79-3.54a.38.38,0,0,1,.29-.1.46.46,0,0,1,.27.13.43.43,0,0,1,.1.29.42.42,0,0,1-.14.27l-3.79,3.54A.38.38,0,0,1,123.07,261.68Z" transform="translate(-18.13 -42.43)"/>
    <path class="ac2064bf-ebe2-45b5-8cf8-d5fe034081c9" d="M126.62,257.76h-3.43a.45.45,0,0,1-.24-.14.39.39,0,0,1-.09-.26.43.43,0,0,1,.09-.26.38.38,0,0,1,.24-.13h3.43a.38.38,0,0,1,.24.13.43.43,0,0,1,.09.26.39.39,0,0,1-.09.26A.45.45,0,0,1,126.62,257.76Z" transform="translate(-18.13 -42.43)"/>
    <path class="ac2064bf-ebe2-45b5-8cf8-d5fe034081c9" d="M126.62,262.15h-3.43A.4.4,0,0,1,123,262a.39.39,0,0,1-.09-.26.38.38,0,0,1,.09-.25.4.4,0,0,1,.24-.14h3.43a.4.4,0,0,1,.24.14.38.38,0,0,1,.09.25.39.39,0,0,1-.09.26A.4.4,0,0,1,126.62,262.15Z" transform="translate(-18.13 -42.43)"/>
    <path class="ac2064bf-ebe2-45b5-8cf8-d5fe034081c9" d="M131.38,261.68a.35.35,0,0,1-.14,0l-.12-.08-3.8-3.54a.41.41,0,0,1,0-.56.5.5,0,0,1,.12-.08l.15,0a.41.41,0,0,1,.16,0,.5.5,0,0,1,.12.08l3.8,3.55a.38.38,0,0,1-.14.64A.36.36,0,0,1,131.38,261.68Z" transform="translate(-18.13 -42.43)"/>
    <path class="ac2064bf-ebe2-45b5-8cf8-d5fe034081c9" d="M127.58,261.68a.29.29,0,0,1-.16,0,.38.38,0,0,1-.13-.09.44.44,0,0,1-.11-.29.43.43,0,0,1,.11-.28l3.81-3.54a.37.37,0,0,1,.28-.1.41.41,0,0,1,.27.13.38.38,0,0,1,.1.29.37.37,0,0,1-.13.27l-3.79,3.54A.47.47,0,0,1,127.58,261.68Z" transform="translate(-18.13 -42.43)"/>
    <path class="ac2064bf-ebe2-45b5-8cf8-d5fe034081c9" d="M131.12,257.76h-3.43a.43.43,0,0,1-.23-.14.35.35,0,0,1-.1-.26.39.39,0,0,1,.1-.26.36.36,0,0,1,.23-.13h3.43a.36.36,0,0,1,.24.13.44.44,0,0,1,.1.26.4.4,0,0,1-.1.26A.42.42,0,0,1,131.12,257.76Z" transform="translate(-18.13 -42.43)"/>
    <path class="ac2064bf-ebe2-45b5-8cf8-d5fe034081c9" d="M131.12,262.15H127.7a.37.37,0,0,1-.24-.14.4.4,0,0,1-.1-.26.39.39,0,0,1,.1-.25.37.37,0,0,1,.24-.14h3.42a.37.37,0,0,1,.24.14.39.39,0,0,1,.1.25.4.4,0,0,1-.1.26A.37.37,0,0,1,131.12,262.15Z" transform="translate(-18.13 -42.43)"/>
    <rect class="bf311c44-7ec6-4c25-90bc-dd07d2a2d1c1" x="389.69" y="0.54" width="112.29" height="140.49"/>
  </g>
  <g id="ff22250c-5060-4e0a-97c1-026793f79513" data-name="sombreo">
    <image width="299" height="248" transform="translate(133.87 202.57) scale(0.19)" xlink:href="sombrero.png"/>
  </g>
  <g id="ae8f77fb-f3c7-482d-a93f-681885ef243a" data-name="bolso">
    <image width="299" height="248" transform="translate(205.87 207.57) scale(0.16)" xlink:href="bolso.png"/>
  </g>
  <g id="a97db246-9b48-47ff-9f29-d49fcb52dffb" data-name="jarron">
    <image width="325" height="314" transform="translate(262.87 209.57) scale(0.12)" xlink:href="jarron1.png"/>
  </g>
  <g id="bd57a140-0256-44cf-aee6-b6bca3a9d4ca" data-name="jarron2">
    <image width="243" height="413" transform="translate(81.46 251.57) scale(0.12)" xlink:href="jarron.png"/>
  </g>
  <g id="b5d6c7d6-d233-4a8e-a54d-6cc2b58c9cfc" data-name="aretes">
    <image width="368" height="261" transform="translate(131.87 251.57) scale(0.18)" xlink:href="aretes.png"/>
  </g>
  <g id="b56c49b0-78db-4c1e-bde8-f99463cf12ec" data-name="tejido">
    <image width="325" height="314" transform="translate(265.04 256.74) scale(0.13)" xlink:href="tejido.png"/>
  </g>
  <g id="fcce400d-9392-43c7-8440-e495d225476a" data-name="esmeralda">
    <image width="923" height="857" transform="translate(205.1 252.93) scale(0.05)" xlink:href="Industrias%20orion/Runalotus/diamante.png"/>
  </g>
</svg>
